<?xml version="1.0" encoding="UTF-8" standalone="no"?>
<svg
   xmlns:dc="http://purl.org/dc/elements/1.1/"
   xmlns:cc="http://creativecommons.org/ns#"
   xmlns:rdf="http://www.w3.org/1999/02/22-rdf-syntax-ns#"
   xmlns:svg="http://www.w3.org/2000/svg"
   xmlns="http://www.w3.org/2000/svg"
   xmlns:xlink="http://www.w3.org/1999/xlink"
   xmlns:sodipodi="http://sodipodi.sourceforge.net/DTD/sodipodi-0.dtd"
   xmlns:inkscape="http://www.inkscape.org/namespaces/inkscape"
   version="1.1"
   preserveAspectRatio="none"
   x="0px"
   y="0px"
   viewBox="0 0 200 200"
   id="svg15"
   sodipodi:docname="teacher-link.svg"
   width="106.50166"
   height="111.45391"
   inkscape:version="0.92.3 (2405546, 2018-03-11)">
  <metadata
     id="metadata19">
    <rdf:RDF>
      <cc:Work
         rdf:about="">
        <dc:format>image/svg+xml</dc:format>
        <dc:type
           rdf:resource="http://purl.org/dc/dcmitype/StillImage" />
        <dc:title></dc:title>
      </cc:Work>
    </rdf:RDF>
  </metadata>
  <sodipodi:namedview
     pagecolor="#ffffff"
     bordercolor="#666666"
     borderopacity="1"
     objecttolerance="10"
     gridtolerance="10"
     guidetolerance="10"
     inkscape:pageopacity="0"
     inkscape:pageshadow="2"
     inkscape:window-width="1920"
     inkscape:window-height="1018"
     id="namedview17"
     showgrid="false"
     fit-margin-top="0"
     fit-margin-left="0"
     fit-margin-right="0"
     fit-margin-bottom="0"
     inkscape:zoom="1.888"
     inkscape:cx="39.866073"
     inkscape:cy="-40.898625"
     inkscape:window-x="0"
     inkscape:window-y="34"
     inkscape:window-maximized="1"
     inkscape:current-layer="svg15" />
  <defs
     id="defs5">
    <g
       id="a">
      <path
         d="m 44.6,32.1 h -0.05 q -8.5,0.05 -14.4,6.2 L 9.05,60.15 q -5.9,6.1 -5.8,14.65 0.15,8.45 6.25,14.4 l 0.05,0.05 q 0.05,0.1 0.1,0.15 l 0.6,0.55 q 0.05,0.05 0.15,0.1 0.05,0.05 0.15,0.15 v -0.05 q 0.05,0.05 0.1,0.15 6,5.6 14.3,5.45 8.55,-0.15 14.5,-6.25 L 56.3,72.05 q -1.2,0.15 -2.45,0.15 -2.5,0.05 -4.75,-0.4 l -13.55,14 q -4.35,4.55 -10.65,4.6 -6.15,0.05 -10.55,-4 -0.1,-0.1 -0.2,-0.25 L 14.05,86.1 Q 14,86.05 13.95,86 L 14,86.1 13.1,85.3 q 0,-0.1 -0.05,-0.15 Q 8.7,80.8 8.6,74.8 V 74.7 Q 8.55,68.35 12.95,63.85 L 34,42 q 1.8,-1.9 4.05,-3 v 0.1 q 2.85,-1.55 6.55,-1.65 h 0.05 q 6.25,-0.1 10.75,4.2 l 0.95,0.9 q 4.45,4.25 4.5,10.65 0.1,2.25 -0.45,4.35 0.7,-0.6 1.4,-1.35 v -0.05 l 4.35,-4.45 q 0,-0.2 0,-0.3 Q 65.5,43.95 60.1,38.7 v -0.05 l -0.95,-0.9 v 0.1 Q 53.55,32.4 45.9,32.1 q -0.65,0 -1.3,0 M 90.5,10.85 90.45,10.8 q -0.05,-0.05 -0.1,-0.1 l -0.6,-0.55 Q 89.7,10.1 89.65,10 89.55,9.95 89.45,9.85 V 9.9 Q 89.4,9.85 89.35,9.8 83.4,4.2 75.05,4.3 66.5,4.5 60.55,10.55 L 43.7,28 q 1.2,-0.1 2.45,-0.1 2.5,-0.1 4.75,0.35 l 13.55,-14 Q 68.8,9.7 75.1,9.65 q 6.15,-0.05 10.55,4 0.1,0.1 0.25,0.25 l 0.05,0.05 Q 86,14 86.05,14.05 L 86,13.95 86.9,14.8 q 0,0.05 0.05,0.1 4.35,4.35 4.45,10.35 v 0.15 q 0.05,6.3 -4.35,10.8 L 66,58.05 q -1.8,1.95 -4.05,3 V 61 Q 59.1,62.55 55.4,62.6 H 55.35 Q 49.1,62.7 44.6,58.45 l -0.95,-0.9 q -4.45,-4.3 -4.5,-10.65 -0.05,-2.3 0.45,-4.35 -0.7,0.6 -1.4,1.3 v 0.05 l -4.35,4.45 q 0,0.2 0,0.3 0.65,7.45 6.05,12.7 v 0.05 l 0.95,0.9 v -0.05 q 5.6,5.4 13.25,5.7 0.65,0 1.3,0 h 0.05 q 8.5,-0.05 14.4,-6.2 L 90.95,39.9 q 5.9,-6.05 5.8,-14.65 Q 96.6,16.8 90.5,10.85 m 19.25,-26.5 v -0.05 0 z"
         id="path2"
         inkscape:connector-curvature="0"
         style="fill:#000000;stroke:none" />
    </g>
  </defs>
  <g
     id="g9"
     transform="translate(-3.2483333,15.7)">
    <use
       xlink:href="#a"
       id="use7"
       x="0"
       y="0"
       width="100%"
       height="100%" />
  </g>
</svg>
